PathFileType	4	(X/Y/Z)	c:/Users/goper/Files/vsCode/490R/osim_files/C06/C06_Slow_03.trc
DataRate	CameraRate	NumFrames	NumMarkers	Units                	OrigDataRate	OrigDataStartFrame	OrigNumFrames
250.00	250.00	5	36	mm	250.0	2226	3560
                Frame#	Time	LPSIS			LASIS			LTH1			LTH2			LTH3			LTH4			LLFE			LMFE			LSH1			LSH2			LSH3			LSH4			LLMAL			LMMAL			LCAL			LMTP5			LTOE			LMTP1			RPSIS			RASIS			RTH1			RTH2			RTH3			RTH4			RLFE			RMFE			RSH1			RSH2			RSH3			RSH4			RLMAL			RMMAL			RCAL			RMTP1			RTOE			RMTP5		
		X1	Y1	Z1	X2	Y2	Z2	X3	Y3	Z3	X4	Y4	Z4	X5	Y5	Z5	X6	Y6	Z6	X7	Y7	Z7	X8	Y8	Z8	X9	Y9	Z9	X10	Y10	Z10	X11	Y11	Z11	X12	Y12	Z12	X13	Y13	Z13	X14	Y14	Z14	X15	Y15	Z15	X16	Y16	Z16	X17	Y17	Z17	X18	Y18	Z18	X19	Y19	Z19	X20	Y20	Z20	X21	Y21	Z21	X22	Y22	Z22	X23	Y23	Z23	X24	Y24	Z24	X25	Y25	Z25	X26	Y26	Z26	X27	Y27	Z27	X28	Y28	Z28	X29	Y29	Z29	X30	Y30	Z30	X31	Y31	Z31	X32	Y32	Z32	X33	Y33	Z33	X34	Y34	Z34	X35	Y35	Z35	X36	Y36	Z36

2226	8.90000	-1974.63586	983.45227	252.28200	-2156.15649	972.30396	342.35852	-2138.39087	763.15344	419.13196	-2164.84058	705.86658	414.58011	-2204.87476	788.79144	392.38330	-2221.41162	729.15869	390.30206	-2258.98584	473.69818	343.59891	-2239.08154	458.08340	230.19778	-2202.95801	360.74054	366.52005	-2210.34863	317.33905	361.89966	-2266.07422	366.22357	355.06552	-2263.78784	321.18234	352.20636	-2221.47754	86.21429	306.91632	-2226.08447	107.34522	231.81642	-2152.30420	67.65412	263.38788	-2331.47070	31.68809	323.40302	-2379.27637	52.53070	254.20639	-2349.74780	37.44822	211.70203	-1971.52747	979.90613	181.76881	-2151.22290	947.73779	106.64686	-2035.24634	755.75537	34.15965	-2037.20569	694.45801	41.69545	-2112.03882	754.25226	45.99640	-2105.54590	691.61853	49.87540	-1992.00269	436.40643	73.93843	-2035.69165	426.20752	173.34926	-1897.19604	423.92590	63.40466	-1862.85461	389.67328	64.43944	-1933.48657	375.14746	62.71059	-1894.90186	348.81216	64.03253	-1694.08411	204.73639	108.21997	-1728.07019	209.14183	184.02547	-1652.60449	256.81961	155.07999	0.00000	0.00000	0.00000	-1723.29504	41.70674	155.04753	-1678.42896	71.68638	93.25331
2227	8.90400	-1979.30029	984.44543	252.77821	-2160.84863	973.16272	342.83820	-2141.77759	763.76172	419.53415	-2167.60498	706.55383	414.61493	-2207.95361	788.66345	392.80576	-2224.69897	729.32922	390.93845	-2260.36572	473.36914	344.18243	-2240.83569	458.14999	230.58781	-2203.54272	360.78992	366.59286	-2210.81250	317.26334	361.99518	-2266.84033	365.93127	355.69376	-2264.42407	320.52426	353.16269	-2221.50488	86.21603	306.94559	-2226.11572	107.42756	231.86040	-2152.31006	67.68753	263.42352	-2331.46973	31.63663	323.46729	-2379.29199	52.47086	254.23509	-2349.75610	37.42468	211.67789	-1976.08545	980.70795	182.11577	-2155.75171	948.71454	107.05005	-2041.05713	755.99194	34.33091	-2043.70203	694.55078	41.84164	-2118.00464	755.18658	46.12212	-2111.50366	692.54596	49.51812	-2001.69604	436.04776	73.33987	-2045.96326	425.21222	174.34532	-1906.92163	424.29645	62.91346	-1872.41077	390.25708	64.07211	-1942.99414	375.24561	62.08680	-1904.12939	349.13287	63.52428	-1702.19043	207.30730	108.06247	-1736.19055	210.54733	183.80305	-1662.53467	261.35904	155.03014	0.00000	0.00000	0.00000	-1726.90234	43.41442	154.76883	-1682.69397	75.04647	93.38990
2228	8.90800	-1984.03613	985.31732	253.22850	-2165.57007	973.81891	343.36752	-2145.06372	764.43066	419.89209	-2170.70801	707.06390	415.03561	-2211.50708	788.88428	393.38062	-2227.90967	729.47400	391.47067	-2261.83936	473.34760	344.54523	-2242.65088	458.21939	231.01428	-2204.32690	360.80283	366.78784	-2211.16895	317.17682	362.06790	-2267.60913	365.69705	356.23944	-2265.04443	320.72815	353.25705	-2221.58374	86.19703	306.98334	-2226.17993	107.48488	231.92874	-2152.32886	67.69746	263.45663	-2331.48853	31.55527	323.50223	-2379.28125	52.38116	254.22278	-2349.76636	37.40718	211.65742	-1980.72351	981.36176	182.43269	-2160.25073	949.73615	107.44964	-2046.89441	756.19916	34.47127	-2050.45679	694.58191	41.74149	-2123.38477	756.19470	45.96605	-2117.83862	693.40961	49.44061	-2011.45691	435.79657	72.75541	-2056.17090	425.30124	174.14406	-1916.73987	424.55960	62.39383	-1882.04370	390.72903	63.64506	-1952.41565	375.31204	61.47055	-1913.53235	349.42249	62.96199	-1710.61584	209.81090	107.83408	-1744.65430	212.23746	183.62106	-1672.93835	264.95337	155.23729	0.00000	0.00000	0.00000	-1730.84021	45.29218	154.57954	-1687.35010	78.24134	93.45544
2229	8.91200	-1988.51331	986.39398	253.67020	-2170.27490	974.71558	343.54498	-2148.50146	765.12927	420.30908	-2173.62695	707.64056	415.39914	-2215.09668	789.18878	394.02496	-2231.00293	729.62323	392.09818	-2263.12451	473.16254	345.05136	-2244.39795	458.25735	231.48843	-2204.95166	360.79251	366.98093	-2211.63184	317.21072	362.28757	-2268.38696	365.50015	356.84375	-2265.63208	320.19031	354.21109	-2221.63184	86.18248	307.03162	-2226.25122	107.55086	231.98856	-2152.38135	67.68238	263.51901	-2331.53662	31.49788	323.53293	-2379.28027	52.34859	254.24400	-2349.77783	37.36547	211.62234	-1985.23132	982.10181	182.91124	-2164.79883	950.79889	107.84795	-2052.90332	756.37335	34.61888	-2057.54272	694.54901	41.32482	-2128.93677	757.12341	45.91194	-2124.27051	694.31482	49.42847	-2021.31775	435.56116	72.19785	-2066.26611	425.29901	174.38211	-1926.63525	424.81500	61.81688	-1891.79761	391.19666	63.17893	-1962.04370	375.41147	60.79806	-1922.93945	349.66330	62.42439	-1719.13159	212.20673	107.68195	-1753.02148	213.92691	183.53476	-1683.23706	268.26987	155.58257	0.00000	0.00000	0.00000	-1735.44568	47.30793	154.41573	-1692.26672	81.30090	93.51456
2230	8.91600	-1993.10144	987.32666	254.17601	-2174.72241	975.33813	343.97177	-2151.64185	765.80194	420.65912	-2176.74634	707.97705	416.01865	-2218.51221	789.46191	394.54788	-2234.16406	729.81696	392.61359	-2264.50684	473.03235	345.59732	-2246.14062	458.25601	231.96019	-2205.59521	360.82800	367.24985	-2212.24780	317.31824	362.61810	-2269.07690	365.24347	357.41415	-2266.08911	320.26743	354.35843	-2221.69067	86.19838	307.05939	-2226.33154	107.61563	232.06065	-2152.39600	67.69318	263.54132	-2331.53589	31.42748	323.56979	-2379.33081	52.33107	254.25113	-2349.78174	37.33444	211.59229	-1989.71887	982.84406	183.26692	-2169.23145	951.85004	108.14199	-2058.70752	756.66351	34.81585	-2065.03271	694.44989	40.52148	-2134.67700	758.12408	46.01149	-2130.68848	695.26715	49.38110	-2031.18262	435.40640	71.66695	-2076.21289	425.57196	174.24303	-1936.61670	425.04663	61.15659	-1901.53601	391.62433	62.68303	-1971.74121	375.49854	60.22083	-1932.65344	349.90485	61.93762	-1727.90002	214.48311	107.57230	-1761.53113	215.62523	183.49911	-1693.42151	271.21841	155.93420	0.00000	0.00000	0.00000	-1740.47620	49.32865	154.27129	-1697.54456	84.17788	93.71254
